
<svg width="280" height="60" viewBox="0 0 280 60" fill="none" xmlns="http://www.w3.org/2000/svg"><path d="M48.92 14.682h-2.795v-2.794h2.795v2.794ZM48.92 17.477h-2.795v-2.795h2.795v2.795ZM48.92 20.27h-2.795v-2.793h2.795v2.794ZM51.715 17.477H48.92v-2.795h2.795v2.795ZM51.715 20.27H48.92v-2.793h2.795v2.794ZM51.715 23.065H48.92v-2.794h2.795v2.794ZM54.511 20.27h-2.795v-2.793h2.795v2.794ZM54.511 23.065h-2.795v-2.794h2.795v2.794Z" fill="#C93F3F"/><path d="M54.511 25.86h-2.795v-2.795h2.795v2.794ZM60.102 20.27h-2.795v-2.793h2.795v2.794ZM60.102 23.065h-2.795v-2.794h2.795v2.794Z" fill="#C93F3F"/><path d="M60.102 25.86h-2.795v-2.795h2.795v2.794ZM60.102 37.037h-2.795v-2.795h2.795v2.795Z" fill="#C93F3F"/><path d="M60.102 39.83h-2.795v-2.794h2.795v2.795ZM60.102 42.625h-2.795v-2.794h2.795v2.794ZM62.897 39.83h-2.795v-2.794h2.795v2.795ZM62.897 42.625h-2.795v-2.794h2.795v2.794ZM62.897 45.42h-2.795v-2.795h2.795v2.794ZM65.693 42.625h-2.795v-2.794h2.795v2.794ZM65.693 45.42h-2.795v-2.795h2.795v2.794Z" fill="#C93F3F"/><path d="M65.693 48.214h-2.795v-2.795h2.795v2.795ZM54.511 37.037h-2.795v-2.795h2.795v2.795ZM51.715 34.242H48.92v-2.794h2.795v2.794ZM48.92 34.242h-2.795v-2.794h2.795v2.794ZM46.124 34.242H43.33v-2.794h2.795v2.794ZM48.92 37.037h-2.795v-2.795h2.795v2.795ZM46.124 37.037H43.33v-2.795h2.795v2.795ZM43.33 37.037h-2.796v-2.795h2.796v2.795Z" fill="#C93F3F"/><path d="M46.124 39.83H43.33v-2.794h2.795v2.795ZM43.33 39.83h-2.796v-2.794h2.796v2.795Z" fill="#C93F3F"/><path d="M40.535 39.83h-2.796v-2.794h2.796v2.795ZM46.124 23.065H43.33v-2.794h2.795v2.794ZM43.33 23.065h-2.796v-2.794h2.796v2.794Z" fill="#C93F3F"/><path d="M40.535 23.065h-2.796v-2.794h2.796v2.794ZM29.353 23.065h-2.795v-2.794h2.795v2.794Z" fill="#C93F3F"/><path d="M32.148 25.86h-2.796v-2.795h2.796v2.794ZM32.148 28.654h-2.796V25.86h2.796v2.794Z" fill="#C93F3F"/><path d="M34.943 28.654h-2.795V25.86h2.795v2.794ZM32.148 34.242h-2.796v-2.794h2.796v2.794ZM32.148 37.037h-2.796v-2.795h2.796v2.795Z" fill="#C93F3F"/><path d="M34.943 34.242h-2.795v-2.794h2.795v2.794ZM37.74 31.448h-2.796v-2.794h2.796v2.794ZM29.353 31.448h-2.795v-2.794h2.795v2.794ZM29.353 39.83h-2.795v-2.794h2.795v2.795ZM26.557 37.037h-2.795v-2.795h2.795v2.795ZM26.557 34.242h-2.795v-2.794h2.795v2.794ZM23.762 34.242h-2.795v-2.794h2.795v2.794ZM23.762 28.654h-2.795V25.86h2.795v2.794ZM20.966 31.448h-2.795v-2.794h2.795v2.794ZM26.557 28.654h-2.795V25.86h2.795v2.794ZM26.557 25.86h-2.795v-2.795h2.795v2.794ZM85.26 23.065h-2.795v-2.794h2.795v2.794ZM88.056 25.86h-2.795v-2.795h2.795v2.794ZM88.056 28.654h-2.795V25.86h2.795v2.794ZM90.851 28.654h-2.795V25.86h2.795v2.794ZM88.056 34.242h-2.795v-2.794h2.795v2.794ZM88.056 37.037h-2.795v-2.795h2.795v2.795ZM90.851 34.242h-2.795v-2.794h2.795v2.794ZM93.647 31.448h-2.795v-2.794h2.795v2.794ZM85.26 31.448h-2.795v-2.794h2.795v2.794ZM85.26 39.83h-2.795v-2.794h2.795v2.795ZM82.465 37.037H79.67v-2.795h2.795v2.795ZM82.465 34.242H79.67v-2.794h2.795v2.794ZM79.67 34.242h-2.795v-2.794h2.795v2.794ZM79.67 28.654h-2.795V25.86h2.795v2.794Z" fill="#C93F3F"/><path d="M76.874 31.448H74.08v-2.794h2.796v2.794ZM82.465 28.654H79.67V25.86h2.795v2.794ZM82.465 25.86H79.67v-2.795h2.795v2.794ZM141.168 23.065h-2.795v-2.794h2.795v2.794ZM143.963 25.86h-2.795v-2.795h2.795v2.795ZM143.963 28.654h-2.795V25.86h2.795v2.794ZM146.759 28.654h-2.795V25.86h2.795v2.794ZM143.963 34.242h-2.795v-2.794h2.795v2.794ZM143.963 37.037h-2.795v-2.795h2.795v2.795ZM146.759 34.242h-2.795v-2.794h2.795v2.794ZM149.554 31.448h-2.795v-2.794h2.795v2.794ZM141.168 31.448h-2.795v-2.794h2.795v2.794ZM141.168 39.83h-2.795v-2.793h2.795v2.794ZM138.373 37.037h-2.796v-2.795h2.796v2.795ZM138.373 34.242h-2.796v-2.794h2.796v2.794Z" fill="#C93F3F"/><path d="M135.578 34.242h-2.796v-2.794h2.796v2.794ZM135.578 28.654h-2.796V25.86h2.796v2.794ZM132.782 31.448h-2.796v-2.794h2.796v2.794Z" fill="#C93F3F"/><path d="M138.373 28.654h-2.796V25.86h2.796v2.794ZM138.373 25.86h-2.796v-2.795h2.796v2.795ZM197.078 23.065h-2.796v-2.794h2.796v2.794ZM199.874 25.86h-2.796v-2.795h2.796v2.794ZM199.874 28.654h-2.796V25.86h2.796v2.794ZM202.669 28.654h-2.795V25.86h2.795v2.794ZM199.874 34.242h-2.796v-2.794h2.796v2.794ZM199.874 37.037h-2.796v-2.795h2.796v2.795ZM202.669 34.242h-2.795v-2.794h2.795v2.794ZM205.464 31.448h-2.795v-2.794h2.795v2.794ZM197.078 31.448h-2.796v-2.794h2.796v2.794ZM197.078 39.83h-2.796v-2.794h2.796v2.795Z" fill="#C93F3F"/><path d="M194.283 37.037h-2.796v-2.795h2.796v2.795ZM194.283 34.242h-2.796v-2.794h2.796v2.794Z" fill="#C93F3F"/><path d="M191.488 34.242h-2.796v-2.794h2.796v2.794ZM191.488 28.654h-2.796V25.86h2.796v2.794ZM188.692 31.448h-2.796v-2.794h2.796v2.794Z" fill="#C93F3F"/><path d="M194.283 28.654h-2.796V25.86h2.796v2.794ZM194.283 25.86h-2.796v-2.795h2.796v2.794ZM252.988 23.065h-2.796v-2.794h2.796v2.794Z" fill="#C93F3F"/><path d="M255.783 25.86h-2.796v-2.795h2.796v2.795ZM255.783 28.654h-2.796V25.86h2.796v2.794ZM258.579 28.654h-2.796V25.86h2.796v2.794ZM255.783 34.242h-2.796v-2.794h2.796v2.794ZM255.783 37.037h-2.796v-2.795h2.796v2.795ZM258.579 34.242h-2.796v-2.794h2.796v2.794Z" fill="#C93F3F"/><path d="M261.374 31.448h-2.796v-2.794h2.796v2.794ZM252.988 31.448h-2.796v-2.794h2.796v2.794ZM252.988 39.83h-2.796v-2.793h2.796v2.794ZM250.192 37.037h-2.796v-2.795h2.796v2.795ZM250.192 34.242h-2.796v-2.794h2.796v2.794Z" fill="#C93F3F"/><path d="M247.397 34.242h-2.795v-2.794h2.795v2.794ZM247.397 28.654h-2.795V25.86h2.795v2.794ZM244.601 31.448h-2.795v-2.794h2.795v2.794Z" fill="#C93F3F"/><path d="M250.192 28.654h-2.796V25.86h2.796v2.794ZM250.192 25.86h-2.796v-2.795h2.796v2.795ZM48.92 25.86h-2.795v-2.795h2.795v2.794ZM46.124 25.86H43.33v-2.795h2.795v2.794ZM43.33 25.86h-2.796v-2.795h2.796v2.794ZM51.715 28.654H48.92V25.86h2.795v2.794ZM48.92 28.654h-2.795V25.86h2.795v2.794ZM46.124 28.654H43.33V25.86h2.795v2.794ZM68.488 28.654h-2.796V25.86h2.796v2.794Z" fill="#C93F3F"/><path d="M65.693 28.654h-2.795V25.86h2.795v2.794ZM62.897 28.654h-2.795V25.86h2.795v2.794ZM57.306 31.448h-2.795v-2.794h2.795v2.794ZM71.284 25.86h-2.796v-2.795h2.796v2.794ZM68.488 25.86h-2.796v-2.795h2.796v2.794Z" fill="#C93F3F"/><path d="M65.693 25.86h-2.795v-2.795h2.795v2.794ZM74.079 23.065h-2.796v-2.794h2.796v2.794Z" fill="#C93F3F"/><path d="M71.284 23.065h-2.796v-2.794h2.796v2.794ZM68.488 23.065h-2.796v-2.794h2.796v2.794ZM74.079 39.83h-2.796v-2.794h2.796v2.795Z" fill="#C93F3F"/><path d="M71.284 39.83h-2.796v-2.794h2.796v2.795ZM68.488 39.83h-2.796v-2.794h2.796v2.795Z" fill="#C93F3F"/><path d="M71.284 37.037h-2.796v-2.795h2.796v2.795ZM68.488 37.037h-2.796v-2.795h2.796v2.795Z" fill="#C93F3F"/><path d="M65.693 37.037h-2.795v-2.795h2.795v2.795ZM68.488 34.242h-2.796v-2.794h2.796v2.794Z" fill="#C93F3F"/><path d="M65.693 34.242h-2.795v-2.794h2.795v2.794ZM62.897 34.242h-2.795v-2.794h2.795v2.794ZM54.511 39.83h-2.795v-2.794h2.795v2.795ZM54.511 42.625h-2.795v-2.794h2.795v2.794ZM51.715 39.83H48.92v-2.794h2.795v2.795ZM51.715 42.625H48.92v-2.794h2.795v2.794ZM51.715 45.42H48.92v-2.795h2.795v2.794ZM48.92 42.625h-2.795v-2.794h2.795v2.794ZM48.92 45.42h-2.795v-2.795h2.795v2.794Z" fill="#C93F3F"/><path d="M48.92 48.214h-2.795v-2.795h2.795v2.795ZM62.897 17.477h-2.795v-2.795h2.795v2.795ZM62.897 20.27h-2.795v-2.793h2.795v2.794ZM62.897 23.065h-2.795v-2.794h2.795v2.794ZM65.693 14.682h-2.795v-2.794h2.795v2.794ZM71.284 17.477h-2.796v-2.795h2.796v2.795ZM74.079 14.682h-2.796v-2.794h2.796v2.794ZM76.874 11.888H74.08V9.094h2.796v2.794ZM79.67 9.094h-2.796V6.3h2.796v2.794ZM82.465 6.3H79.67V3.505h2.795V6.3ZM85.261 3.505h-2.795V.711h2.795v2.794ZM88.056 6.3h-2.795V3.505h2.795V6.3ZM90.851 9.094h-2.795V6.3h2.795v2.794ZM93.647 11.888h-2.795V9.094h2.795v2.794ZM96.442 14.682h-2.795v-2.794h2.795v2.794ZM99.238 17.477h-2.796v-2.795h2.796v2.795ZM88.056 17.477h-2.795v-2.795h2.795v2.795ZM85.261 14.682h-2.795v-2.794h2.795v2.794ZM82.465 17.477H79.67v-2.795h2.795v2.795ZM15.374 17.477H12.58v-2.795h2.795v2.795ZM18.17 14.682h-2.795v-2.794h2.795v2.794ZM20.965 11.888H18.17V9.094h2.795v2.794ZM23.761 9.094h-2.795V6.3h2.795v2.794ZM26.556 6.3h-2.795V3.505h2.795V6.3ZM29.352 3.505h-2.795V.711h2.795v2.794ZM32.147 6.3h-2.795V3.505h2.795V6.3ZM34.943 9.094h-2.795V6.3h2.795v2.794ZM37.739 11.888h-2.796V9.094h2.796v2.794ZM40.535 14.682h-2.796v-2.794h2.796v2.794ZM43.33 17.477h-2.796v-2.795h2.796v2.795ZM32.147 17.477h-2.795v-2.795h2.795v2.795ZM29.352 14.682h-2.795v-2.794h2.795v2.794ZM26.556 17.477h-2.795v-2.795h2.795v2.795ZM40.534 42.625h2.795v2.794h-2.795v-2.794ZM37.739 45.42h2.795v2.794H37.74v-2.795ZM34.944 48.214h2.795v2.794h-2.795v-2.794ZM32.148 51.008h2.795v2.794h-2.795v-2.794ZM29.352 53.802h2.796v2.794h-2.796v-2.794ZM26.556 56.596h2.796v2.795h-2.796v-2.795ZM23.761 53.802h2.796v2.794H23.76v-2.794ZM20.965 51.008h2.796v2.794h-2.796v-2.794ZM18.17 48.214h2.796v2.794H18.17v-2.794ZM15.374 45.42h2.796v2.794h-2.796v-2.795ZM12.58 42.625h2.795v2.794H12.58v-2.794ZM23.761 42.625h2.796v2.794H23.76v-2.794ZM26.556 45.42h2.796v2.794h-2.796v-2.795ZM29.352 42.625h2.796v2.794h-2.796v-2.794ZM96.443 42.625h2.795v2.794h-2.795v-2.794ZM93.647 45.42h2.795v2.794h-2.795v-2.795ZM90.851 48.214h2.796v2.794H90.85v-2.794ZM88.056 51.008h2.796v2.794h-2.796v-2.794ZM85.26 53.802h2.796v2.794H85.26v-2.794ZM82.465 56.596h2.796v2.795h-2.796v-2.795ZM79.67 53.802h2.796v2.794H79.67v-2.794ZM76.874 51.008h2.796v2.794h-2.796v-2.794ZM74.079 48.214h2.795v2.794h-2.795v-2.794ZM71.284 45.42h2.795v2.794h-2.795v-2.795ZM68.488 42.625h2.795v2.794h-2.795v-2.794ZM79.67 42.625h2.796v2.794H79.67v-2.794ZM82.465 45.42h2.796v2.794h-2.796v-2.795ZM85.26 42.625h2.796v2.794H85.26v-2.794ZM152.352 42.625h2.795v2.794h-2.795v-2.794ZM149.556 45.42h2.796v2.794h-2.796v-2.795ZM146.76 48.214h2.796v2.794h-2.796v-2.794ZM143.964 51.008h2.796v2.794h-2.796v-2.794ZM141.169 53.802h2.796v2.794h-2.796v-2.794ZM138.374 56.596h2.795v2.795h-2.795v-2.795ZM135.579 53.802h2.795v2.794h-2.795v-2.794ZM132.783 51.008h2.795v2.794h-2.795v-2.794ZM129.988 48.214h2.795v2.794h-2.795v-2.794ZM127.192 45.42h2.795v2.794h-2.795v-2.795ZM124.397 42.625h2.795v2.794h-2.795v-2.794ZM135.579 42.625h2.795v2.794h-2.795v-2.794ZM138.374 45.42h2.795v2.794h-2.795v-2.795ZM141.169 42.625h2.796v2.794h-2.796v-2.794ZM208.259 42.625h2.796v2.794h-2.796v-2.794ZM205.464 45.42h2.796v2.794h-2.796v-2.795ZM202.668 48.214h2.796v2.794h-2.796v-2.794ZM199.874 51.008h2.795v2.794h-2.795v-2.794ZM197.079 53.802h2.795v2.794h-2.795v-2.794ZM194.283 56.596h2.795v2.795h-2.795v-2.795ZM191.487 53.802h2.795v2.794h-2.795v-2.794ZM188.692 51.008h2.795v2.794h-2.795v-2.794ZM185.896 48.214h2.795v2.794h-2.795v-2.794ZM183.101 45.42h2.795v2.794h-2.795v-2.795ZM180.305 42.625h2.796v2.794h-2.796v-2.794ZM191.487 42.625h2.795v2.794h-2.795v-2.794ZM194.283 45.42h2.795v2.794h-2.795v-2.795ZM197.079 42.625h2.795v2.794h-2.795v-2.794ZM264.168 42.625h2.796v2.794h-2.796v-2.794ZM261.373 45.42h2.795v2.794h-2.795v-2.795ZM258.578 48.214h2.795v2.794h-2.795v-2.794ZM255.782 51.008h2.795v2.794h-2.795v-2.794ZM252.987 53.802h2.795v2.794h-2.795v-2.794ZM250.191 56.596h2.795v2.795h-2.795v-2.795ZM247.396 53.802h2.795v2.794h-2.795v-2.794ZM244.601 51.008h2.795v2.794h-2.795v-2.794ZM241.805 48.214h2.796v2.794h-2.796v-2.794ZM239.009 45.42h2.796v2.794h-2.796v-2.795ZM236.214 42.625h2.796v2.794h-2.796v-2.794ZM247.396 42.625h2.795v2.794h-2.795v-2.794ZM250.191 45.42h2.795v2.794h-2.795v-2.795ZM252.987 42.625h2.795v2.794h-2.795v-2.794ZM127.192 17.477h-2.796v-2.795h2.796v2.795ZM129.988 14.682h-2.796v-2.794h2.796v2.794ZM132.783 11.888h-2.796V9.094h2.796v2.794ZM135.579 9.094h-2.796V6.3h2.796v2.794ZM138.374 6.3h-2.796V3.505h2.796V6.3ZM141.169 3.505h-2.795V.711h2.795v2.794ZM143.964 6.3h-2.795V3.505h2.795V6.3ZM146.76 9.094h-2.795V6.3h2.795v2.794ZM149.555 11.888h-2.795V9.094h2.795v2.794ZM152.351 14.682h-2.795v-2.794h2.795v2.794ZM155.147 17.477h-2.795v-2.795h2.795v2.795ZM143.964 17.477h-2.795v-2.795h2.795v2.795ZM141.169 14.682h-2.795v-2.794h2.795v2.794ZM138.374 17.477h-2.796v-2.795h2.796v2.795ZM183.101 17.477h-2.795v-2.795h2.795v2.795ZM185.896 14.682h-2.795v-2.794h2.795v2.794ZM188.692 11.888h-2.796V9.094h2.796v2.794ZM191.487 9.094h-2.796V6.3h2.796v2.794ZM194.283 6.3h-2.796V3.505h2.796V6.3ZM197.078 3.505h-2.796V.711h2.796v2.794ZM199.874 6.3h-2.796V3.505h2.796V6.3ZM202.669 9.094h-2.795V6.3h2.795v2.794ZM205.464 11.888h-2.795V9.094h2.795v2.794ZM208.259 14.682h-2.795v-2.794h2.795v2.794ZM211.055 17.477h-2.795v-2.795h2.795v2.795ZM199.874 17.477h-2.796v-2.795h2.796v2.795ZM197.078 14.682h-2.796v-2.794h2.796v2.794ZM194.283 17.477h-2.796v-2.795h2.796v2.795ZM239.009 17.477h-2.795v-2.795h2.795v2.795ZM241.805 14.682h-2.795v-2.794h2.795v2.794ZM244.6 11.888h-2.795V9.094h2.795v2.794ZM247.396 9.094h-2.795V6.3h2.795v2.794ZM250.192 6.3h-2.796V3.505h2.796V6.3ZM252.987 3.505h-2.796V.711h2.796v2.794ZM255.782 6.3h-2.796V3.505h2.796V6.3ZM258.578 9.094h-2.796V6.3h2.796v2.794ZM261.373 11.888h-2.796V9.094h2.796v2.794ZM264.168 14.682h-2.795v-2.794h2.795v2.794ZM266.963 17.477h-2.795v-2.795h2.795v2.795ZM255.782 17.477h-2.796v-2.795h2.796v2.795ZM252.987 14.682h-2.796v-2.794h2.796v2.794ZM250.192 17.477h-2.796v-2.795h2.796v2.795ZM65.693 17.477h-2.795v-2.795h2.795v2.795ZM65.693 20.27h-2.795v-2.793h2.795v2.794ZM104.829 14.682h-2.796v-2.794h2.796v2.794ZM104.829 17.477h-2.796v-2.795h2.796v2.795ZM104.829 20.27h-2.796v-2.793h2.796v2.794ZM107.625 17.477h-2.796v-2.795h2.796v2.795ZM107.625 20.27h-2.796v-2.793h2.796v2.794ZM107.625 23.065h-2.796v-2.794h2.796v2.794Z" fill="#C93F3F"/><path d="M110.419 20.27h-2.795v-2.793h2.795v2.794ZM110.419 23.065h-2.795v-2.794h2.795v2.794Z" fill="#C93F3F"/><path d="M110.419 25.86h-2.795v-2.795h2.795v2.794ZM116.01 20.27h-2.795v-2.793h2.795v2.794ZM116.01 23.065h-2.795v-2.794h2.795v2.794Z" fill="#C93F3F"/><path d="M116.01 25.86h-2.795v-2.795h2.795v2.794ZM116.01 37.037h-2.795v-2.795h2.795v2.795Z" fill="#C93F3F"/><path d="M116.01 39.83h-2.795v-2.794h2.795v2.795ZM116.01 42.625h-2.795v-2.794h2.795v2.794ZM118.806 39.83h-2.795v-2.794h2.795v2.795ZM118.806 42.625h-2.795v-2.794h2.795v2.794ZM118.806 45.42h-2.795v-2.795h2.795v2.794ZM121.601 42.625h-2.795v-2.794h2.795v2.794ZM121.601 45.42h-2.795v-2.795h2.795v2.794Z" fill="#C93F3F"/><path d="M121.601 48.214h-2.795v-2.795h2.795v2.795ZM110.419 37.037h-2.795v-2.795h2.795v2.795ZM107.625 34.242h-2.796v-2.794h2.796v2.794ZM104.829 34.242h-2.796v-2.794h2.796v2.794Z" fill="#C93F3F"/><path d="M102.034 34.242h-2.796v-2.794h2.796v2.794ZM104.829 37.037h-2.796v-2.795h2.796v2.795Z" fill="#C93F3F"/><path d="M102.034 37.037h-2.796v-2.795h2.796v2.795ZM99.238 37.037h-2.796v-2.795h2.796v2.795Z" fill="#C93F3F"/><path d="M102.034 39.83h-2.796v-2.794h2.796v2.795ZM99.238 39.83h-2.796v-2.794h2.796v2.795ZM96.442 39.83h-2.795v-2.794h2.795v2.795ZM102.034 23.065h-2.796v-2.794h2.796v2.794ZM99.238 23.065h-2.796v-2.794h2.796v2.794ZM96.442 23.065h-2.795v-2.794h2.795v2.794Z" fill="#C93F3F"/><path d="M104.829 25.86h-2.796v-2.795h2.796v2.794Z" fill="#C93F3F"/><path d="M102.034 25.86h-2.796v-2.795h2.796v2.794ZM99.238 25.86h-2.796v-2.795h2.796v2.794ZM107.625 28.654h-2.796V25.86h2.796v2.794ZM104.829 28.654h-2.796V25.86h2.796v2.794Z" fill="#C93F3F"/><path d="M102.034 28.654h-2.796V25.86h2.796v2.794ZM124.397 28.654h-2.795V25.86h2.795v2.794ZM121.601 28.654h-2.795V25.86h2.795v2.794ZM118.806 28.654h-2.795V25.86h2.795v2.794ZM113.215 31.448h-2.795v-2.794h2.795v2.794ZM127.192 25.86h-2.796v-2.795h2.796v2.794Z" fill="#C93F3F"/><path d="M124.397 25.86h-2.795v-2.795h2.795v2.794ZM121.601 25.86h-2.795v-2.795h2.795v2.794ZM129.988 23.065h-2.796v-2.794h2.796v2.794Z" fill="#C93F3F"/><path d="M127.192 23.065h-2.796v-2.794h2.796v2.794Z" fill="#C93F3F"/><path d="M124.397 23.065h-2.795v-2.794h2.795v2.794ZM129.988 39.83h-2.796v-2.794h2.796v2.795ZM127.192 39.83h-2.796v-2.794h2.796v2.795Z" fill="#C93F3F"/><path d="M124.397 39.83h-2.795v-2.794h2.795v2.795Z" fill="#C93F3F"/><path d="M127.192 37.037h-2.796v-2.795h2.796v2.795Z" fill="#C93F3F"/><path d="M124.397 37.037h-2.795v-2.795h2.795v2.795ZM121.601 37.037h-2.795v-2.795h2.795v2.795ZM124.397 34.242h-2.795v-2.794h2.795v2.794ZM121.601 34.242h-2.795v-2.794h2.795v2.794ZM118.806 34.242h-2.795v-2.794h2.795v2.794ZM110.419 39.83h-2.795v-2.794h2.795v2.795ZM110.419 42.625h-2.795v-2.794h2.795v2.794Z" fill="#C93F3F"/><path d="M107.625 39.83h-2.796v-2.794h2.796v2.795ZM107.625 42.625h-2.796v-2.794h2.796v2.794ZM107.625 45.42h-2.796v-2.795h2.796v2.794ZM104.829 42.625h-2.796v-2.794h2.796v2.794ZM104.829 45.42h-2.796v-2.795h2.796v2.794Z" fill="#C93F3F"/><path d="M104.829 48.214h-2.796v-2.795h2.796v2.795ZM118.806 17.477h-2.795v-2.795h2.795v2.795ZM118.806 20.27h-2.795v-2.793h2.795v2.794ZM118.806 23.065h-2.795v-2.794h2.795v2.794ZM121.601 14.682h-2.795v-2.794h2.795v2.794ZM121.601 17.477h-2.795v-2.795h2.795v2.795ZM121.601 20.27h-2.795v-2.793h2.795v2.794ZM160.737 14.682h-2.796v-2.794h2.796v2.794ZM160.737 17.477h-2.796v-2.795h2.796v2.795ZM160.737 20.27h-2.796v-2.793h2.796v2.794ZM163.533 17.477h-2.796v-2.795h2.796v2.795ZM163.533 20.27h-2.796v-2.793h2.796v2.794ZM163.533 23.065h-2.796v-2.794h2.796v2.794ZM166.329 20.27h-2.796v-2.793h2.796v2.794ZM166.329 23.065h-2.796v-2.794h2.796v2.794Z" fill="#C93F3F"/><path d="M166.329 25.86h-2.796v-2.795h2.796v2.794ZM171.919 20.27h-2.795v-2.793h2.795v2.794ZM171.919 23.065h-2.795v-2.794h2.795v2.794Z" fill="#C93F3F"/><path d="M171.919 25.86h-2.795v-2.795h2.795v2.794ZM171.919 37.037h-2.795v-2.795h2.795v2.795Z" fill="#C93F3F"/><path d="M171.919 39.83h-2.795v-2.794h2.795v2.795ZM171.919 42.625h-2.795v-2.794h2.795v2.794ZM174.714 39.83h-2.795v-2.794h2.795v2.795ZM174.714 42.625h-2.795v-2.794h2.795v2.794ZM174.714 45.42h-2.795v-2.795h2.795v2.794ZM177.51 42.625h-2.795v-2.794h2.795v2.794ZM177.51 45.42h-2.795v-2.795h2.795v2.794Z" fill="#C93F3F"/><path d="M177.51 48.214h-2.795v-2.795h2.795v2.795ZM166.329 37.037h-2.796v-2.795h2.796v2.795ZM163.533 34.242h-2.796v-2.794h2.796v2.794ZM160.737 34.242h-2.796v-2.794h2.796v2.794Z" fill="#C93F3F"/><path d="M157.943 34.242h-2.796v-2.794h2.796v2.794ZM160.737 37.037h-2.796v-2.795h2.796v2.795Z" fill="#C93F3F"/><path d="M157.943 37.037h-2.796v-2.795h2.796v2.795ZM155.147 37.037h-2.795v-2.795h2.795v2.795Z" fill="#C93F3F"/><path d="M157.943 39.83h-2.796v-2.794h2.796v2.795ZM155.147 39.83h-2.795v-2.794h2.795v2.795ZM152.351 39.83h-2.795v-2.794h2.795v2.795ZM157.943 23.065h-2.796v-2.794h2.796v2.794ZM155.147 23.065h-2.795v-2.794h2.795v2.794ZM152.351 23.065h-2.795v-2.794h2.795v2.794Z" fill="#C93F3F"/><path d="M160.737 25.86h-2.796v-2.795h2.796v2.794Z" fill="#C93F3F"/><path d="M157.943 25.86h-2.796v-2.795h2.796v2.794ZM155.147 25.86h-2.795v-2.795h2.795v2.794ZM163.533 28.654h-2.796V25.86h2.796v2.794ZM160.737 28.654h-2.796V25.86h2.796v2.794Z" fill="#C93F3F"/><path d="M157.943 28.654h-2.796V25.86h2.796v2.794ZM180.306 28.654h-2.795V25.86h2.795v2.794ZM177.51 28.654h-2.795V25.86h2.795v2.794ZM174.714 28.654h-2.795V25.86h2.795v2.794ZM169.124 31.448h-2.796v-2.794h2.796v2.794ZM183.101 25.86h-2.795v-2.795h2.795v2.794ZM180.306 25.86h-2.795v-2.795h2.795v2.794ZM177.51 25.86h-2.795v-2.795h2.795v2.794ZM185.896 23.065h-2.795v-2.794h2.795v2.794Z" fill="#C93F3F"/><path d="M183.101 23.065h-2.795v-2.794h2.795v2.794ZM180.306 23.065h-2.795v-2.794h2.795v2.794ZM185.896 39.83h-2.795v-2.794h2.795v2.795ZM183.101 39.83h-2.795v-2.794h2.795v2.795ZM180.306 39.83h-2.795v-2.794h2.795v2.795Z" fill="#C93F3F"/><path d="M183.101 37.037h-2.795v-2.795h2.795v2.795ZM180.306 37.037h-2.795v-2.795h2.795v2.795ZM177.51 37.037h-2.795v-2.795h2.795v2.795ZM180.306 34.242h-2.795v-2.794h2.795v2.794ZM177.51 34.242h-2.795v-2.794h2.795v2.794ZM174.714 34.242h-2.795v-2.794h2.795v2.794ZM166.329 39.83h-2.796v-2.794h2.796v2.795ZM166.329 42.625h-2.796v-2.794h2.796v2.794ZM163.533 39.83h-2.796v-2.794h2.796v2.795ZM163.533 42.625h-2.796v-2.794h2.796v2.794ZM163.533 45.42h-2.796v-2.795h2.796v2.794ZM160.737 42.625h-2.796v-2.794h2.796v2.794ZM160.737 45.42h-2.796v-2.795h2.796v2.794Z" fill="#C93F3F"/><path d="M160.737 48.214h-2.796v-2.795h2.796v2.795ZM174.714 17.477h-2.795v-2.795h2.795v2.795ZM174.714 20.27h-2.795v-2.793h2.795v2.794ZM174.714 23.065h-2.795v-2.794h2.795v2.794ZM177.51 14.682h-2.795v-2.794h2.795v2.794ZM177.51 17.477h-2.795v-2.795h2.795v2.795ZM177.51 20.27h-2.795v-2.793h2.795v2.794ZM216.646 14.682h-2.795v-2.794h2.795v2.794ZM216.646 17.477h-2.795v-2.795h2.795v2.795ZM216.646 20.27h-2.795v-2.793h2.795v2.794ZM219.442 17.477h-2.796v-2.795h2.796v2.795ZM219.442 20.27h-2.796v-2.793h2.796v2.794ZM219.442 23.065h-2.796v-2.794h2.796v2.794Z" fill="#C93F3F"/><path d="M222.237 20.27h-2.796v-2.793h2.796v2.794ZM222.237 23.065h-2.796v-2.794h2.796v2.794Z" fill="#C93F3F"/><path d="M222.237 25.86h-2.796v-2.795h2.796v2.794ZM227.828 20.27h-2.796v-2.793h2.796v2.794ZM227.828 23.065h-2.796v-2.794h2.796v2.794Z" fill="#C93F3F"/><path d="M227.828 25.86h-2.796v-2.795h2.796v2.794ZM227.828 37.037h-2.796v-2.795h2.796v2.795Z" fill="#C93F3F"/><path d="M227.828 39.83h-2.796v-2.794h2.796v2.795ZM227.828 42.625h-2.796v-2.794h2.796v2.794Z" fill="#C93F3F"/><path d="M230.623 39.83h-2.796v-2.794h2.796v2.795ZM230.623 42.625h-2.796v-2.794h2.796v2.794ZM230.623 45.42h-2.796v-2.795h2.796v2.794ZM233.418 42.625h-2.795v-2.794h2.795v2.794ZM233.418 45.42h-2.795v-2.795h2.795v2.794Z" fill="#C93F3F"/><path d="M233.418 48.214h-2.795v-2.795h2.795v2.795ZM222.237 37.037h-2.796v-2.795h2.796v2.795ZM219.442 34.242h-2.796v-2.794h2.796v2.794ZM216.646 34.242h-2.795v-2.794h2.795v2.794ZM213.85 34.242h-2.795v-2.794h2.795v2.794ZM216.646 37.037h-2.795v-2.795h2.795v2.795ZM213.85 37.037h-2.795v-2.795h2.795v2.795ZM211.055 37.037h-2.795v-2.795h2.795v2.795Z" fill="#C93F3F"/><path d="M213.85 39.83h-2.795v-2.794h2.795v2.795ZM211.055 39.83h-2.795v-2.794h2.795v2.795ZM208.259 39.83h-2.795v-2.794h2.795v2.795ZM213.85 23.065h-2.795v-2.794h2.795v2.794ZM211.055 23.065h-2.795v-2.794h2.795v2.794ZM208.259 23.065h-2.795v-2.794h2.795v2.794ZM216.646 25.86h-2.795v-2.795h2.795v2.794Z" fill="#C93F3F"/><path d="M213.85 25.86h-2.795v-2.795h2.795v2.794ZM211.055 25.86h-2.795v-2.795h2.795v2.794ZM219.442 28.654h-2.796V25.86h2.796v2.794ZM216.646 28.654h-2.795V25.86h2.795v2.794ZM213.85 28.654h-2.795V25.86h2.795v2.794ZM236.214 28.654h-2.795V25.86h2.795v2.794ZM233.418 28.654h-2.795V25.86h2.795v2.794ZM230.623 28.654h-2.796V25.86h2.796v2.794ZM225.033 31.448h-2.796v-2.794h2.796v2.794ZM239.009 25.86h-2.795v-2.795h2.795v2.794ZM236.214 25.86h-2.795v-2.795h2.795v2.794ZM233.418 25.86h-2.795v-2.795h2.795v2.794ZM241.805 23.065h-2.795v-2.794h2.795v2.794Z" fill="#C93F3F"/><path d="M239.009 23.065h-2.795v-2.794h2.795v2.794ZM236.214 23.065h-2.795v-2.794h2.795v2.794ZM241.805 39.83h-2.795v-2.794h2.795v2.795ZM239.009 39.83h-2.795v-2.794h2.795v2.795ZM236.214 39.83h-2.795v-2.794h2.795v2.795Z" fill="#C93F3F"/><path d="M239.009 37.037h-2.795v-2.795h2.795v2.795ZM236.214 37.037h-2.795v-2.795h2.795v2.795ZM233.418 37.037h-2.795v-2.795h2.795v2.795ZM236.214 34.242h-2.795v-2.794h2.795v2.794ZM233.418 34.242h-2.795v-2.794h2.795v2.794ZM230.623 34.242h-2.796v-2.794h2.796v2.794ZM222.237 39.83h-2.796v-2.794h2.796v2.795ZM222.237 42.625h-2.796v-2.794h2.796v2.794Z" fill="#C93F3F"/><path d="M219.442 39.83h-2.796v-2.794h2.796v2.795ZM219.442 42.625h-2.796v-2.794h2.796v2.794ZM219.442 45.42h-2.796v-2.795h2.796v2.794ZM216.646 42.625h-2.795v-2.794h2.795v2.794ZM216.646 45.42h-2.795v-2.795h2.795v2.794Z" fill="#C93F3F"/><path d="M216.646 48.214h-2.795v-2.795h2.795v2.795ZM230.623 17.477h-2.796v-2.795h2.796v2.795ZM230.623 20.27h-2.796v-2.793h2.796v2.794ZM230.623 23.065h-2.796v-2.794h2.796v2.794ZM233.418 14.682h-2.795v-2.794h2.795v2.794ZM233.418 17.477h-2.795v-2.795h2.795v2.795ZM233.418 20.27h-2.795v-2.793h2.795v2.794ZM272.555 14.682h-2.795v-2.794h2.795v2.794ZM272.555 17.477h-2.795v-2.795h2.795v2.795ZM272.555 20.27h-2.795v-2.793h2.795v2.794ZM275.35 17.477h-2.795v-2.795h2.795v2.795ZM275.35 20.27h-2.795v-2.793h2.795v2.794ZM275.35 23.065h-2.795v-2.794h2.795v2.794Z" fill="#C93F3F"/><path d="M278.145 20.27h-2.795v-2.793h2.795v2.794ZM278.145 23.065h-2.795v-2.794h2.795v2.794Z" fill="#C93F3F"/><path d="M278.145 25.86h-2.795v-2.795h2.795v2.794ZM278.145 37.037h-2.795v-2.795h2.795v2.795ZM275.35 34.242h-2.795v-2.794h2.795v2.794ZM272.555 34.242h-2.795v-2.794h2.795v2.794ZM269.759 34.242h-2.795v-2.794h2.795v2.794ZM272.555 37.037h-2.795v-2.795h2.795v2.795ZM269.759 37.037h-2.795v-2.795h2.795v2.795ZM266.963 37.037h-2.795v-2.795h2.795v2.795Z" fill="#C93F3F"/><path d="M269.759 39.83h-2.795v-2.794h2.795v2.795ZM266.963 39.83h-2.795v-2.794h2.795v2.795ZM264.168 39.83h-2.795v-2.794h2.795v2.795ZM269.759 23.065h-2.795v-2.794h2.795v2.794ZM266.963 23.065h-2.795v-2.794h2.795v2.794ZM264.168 23.065h-2.795v-2.794h2.795v2.794ZM272.555 25.86h-2.795v-2.795h2.795v2.794Z" fill="#C93F3F"/><path d="M269.759 25.86h-2.795v-2.795h2.795v2.794ZM266.963 25.86h-2.795v-2.795h2.795v2.794ZM275.35 28.654h-2.795V25.86h2.795v2.794ZM272.555 28.654h-2.795V25.86h2.795v2.794ZM269.759 28.654h-2.795V25.86h2.795v2.794ZM279.543 31.448h-1.397v-2.794h1.397v2.794ZM278.145 39.83h-2.795v-2.794h2.795v2.795ZM278.145 42.625h-2.795v-2.794h2.795v2.794Z" fill="#C93F3F"/><path d="M275.35 39.83h-2.795v-2.794h2.795v2.795ZM275.35 42.625h-2.795v-2.794h2.795v2.794ZM275.35 45.42h-2.795v-2.795h2.795v2.794ZM272.555 42.625h-2.795v-2.794h2.795v2.794ZM272.555 45.42h-2.795v-2.795h2.795v2.794Z" fill="#C93F3F"/><path d="M272.555 48.214h-2.795v-2.795h2.795v2.795ZM4.193 20.27H1.397v-2.793h2.796v2.794ZM4.193 23.065H1.397v-2.794h2.796v2.794Z" fill="#C93F3F"/><path d="M4.193 25.86H1.397v-2.795h2.796v2.794ZM4.193 37.037H1.397v-2.795h2.796v2.795Z" fill="#C93F3F"/><path d="M4.193 39.83H1.397v-2.794h2.796v2.795ZM4.193 42.625H1.397v-2.794h2.796v2.794ZM6.989 39.83H4.193v-2.794H6.99v2.795ZM6.989 42.625H4.193v-2.794H6.99v2.794ZM6.989 45.42H4.193v-2.795H6.99v2.794Z" fill="#C93F3F"/><path d="M9.784 42.625H6.988v-2.794h2.796v2.794ZM9.784 45.42H6.988v-2.795h2.796v2.794Z" fill="#C93F3F"/><path d="M9.784 48.214H6.988v-2.795h2.796v2.795ZM12.58 28.654H9.784V25.86h2.796v2.794ZM9.784 28.654H6.988V25.86h2.796v2.794Z" fill="#C93F3F"/><path d="M6.989 28.654H4.193V25.86H6.99v2.794ZM1.398 31.448H0v-2.794h1.398v2.794ZM15.374 25.86H12.58v-2.795h2.795v2.794ZM12.58 25.86H9.784v-2.795h2.796v2.794ZM9.784 25.86H6.988v-2.795h2.796v2.794ZM18.17 23.065h-2.795v-2.794h2.795v2.794Z" fill="#C93F3F"/><path d="M15.374 23.065H12.58v-2.794h2.795v2.794ZM12.58 23.065H9.784v-2.794h2.796v2.794ZM18.17 39.83h-2.795v-2.794h2.795v2.795ZM15.374 39.83H12.58v-2.794h2.795v2.795ZM12.58 39.83H9.784v-2.794h2.796v2.795Z" fill="#C93F3F"/><path d="M15.374 37.037H12.58v-2.795h2.795v2.795ZM12.58 37.037H9.784v-2.795h2.796v2.795ZM9.784 37.037H6.988v-2.795h2.796v2.795ZM12.58 34.242H9.784v-2.794h2.796v2.794ZM9.784 34.242H6.988v-2.794h2.796v2.794Z" fill="#C93F3F"/><path d="M6.989 34.242H4.193v-2.794H6.99v2.794ZM6.989 17.477H4.193v-2.795H6.99v2.795ZM6.989 20.27H4.193v-2.793H6.99v2.794ZM6.989 23.065H4.193v-2.794H6.99v2.794ZM9.784 14.682H6.988v-2.794h2.796v2.794Z" fill="#C93F3F"/><path d="M9.784 17.477H6.988v-2.795h2.796v2.795ZM9.784 20.27H6.988v-2.793h2.796v2.794Z" fill="#C93F3F"/></svg>